<?xml version="1.0" standalone="no"?>
<!DOCTYPE svg PUBLIC "-//W3C//DTD SVG 20010904//EN"
 "http://www.w3.org/TR/2001/REC-SVG-20010904/DTD/svg10.dtd">
<svg version="1.0" xmlns="http://www.w3.org/2000/svg"
 width="2383.000000pt" height="2383.000000pt" viewBox="0 0 2383.000000 2383.000000"
 preserveAspectRatio="xMidYMid meet">
<metadata>
Created by potrace 1.14, written by Peter Selinger 2001-2017
</metadata>
<g transform="translate(0.000000,2383.000000) scale(0.100000,-0.100000)"
fill="#000000" stroke="none">
<path d="M11807 23814 c-1 -1 -37 -5 -79 -9 -80 -6 -96 -9 -188 -26 -88 -16
-93 -18 -186 -44 -105 -31 -273 -99 -369 -150 -388 -206 -710 -550 -886 -945
-46 -103 -103 -262 -113 -312 -2 -12 -9 -41 -15 -63 -53 -201 -62 -605 -17
-815 5 -23 18 -79 21 -90 1 -3 5 -23 10 -45 7 -37 52 -173 78 -240 30 -75 122
-254 163 -319 158 -245 378 -468 604 -614 224 -143 473 -242 730 -289 l45 -9
3 -245 2 -245 -27 -1 c-53 -1 -308 -14 -358 -18 -27 -2 -84 -7 -125 -10 -41
-3 -91 -8 -110 -10 -19 -2 -64 -7 -100 -10 -36 -4 -76 -8 -90 -10 -14 -2 -54
-6 -90 -10 -36 -3 -72 -8 -80 -10 -8 -2 -37 -7 -65 -10 -27 -3 -63 -8 -80 -11
-16 -3 -41 -7 -55 -8 -14 -2 -41 -6 -60 -10 -19 -3 -48 -8 -65 -11 -452 -75
-1006 -210 -1365 -332 -41 -15 -88 -30 -105 -34 -34 -9 -110 -35 -140 -49 -11
-5 -48 -18 -82 -29 -105 -35 -469 -181 -637 -255 -219 -97 -640 -308 -776
-388 -19 -12 -60 -34 -90 -51 -30 -16 -61 -34 -68 -40 -12 -9 -24 -17 -114
-66 -137 -76 -529 -338 -768 -514 -118 -87 -395 -303 -426 -332 -6 -5 -32 -28
-59 -50 -27 -22 -58 -49 -71 -60 -12 -11 -33 -29 -46 -39 -20 -17 -100 -89
-267 -241 -90 -81 -430 -425 -511 -515 -41 -46 -91 -100 -110 -121 -35 -38
-63 -70 -184 -214 -37 -44 -77 -91 -88 -104 -11 -12 -59 -73 -106 -135 -48
-61 -89 -113 -92 -116 -3 -3 -17 -21 -30 -40 -13 -19 -27 -37 -30 -40 -3 -3
-43 -57 -88 -120 -45 -63 -86 -120 -91 -126 -5 -6 -20 -28 -34 -50 -122 -185
-167 -251 -176 -261 -6 -7 -11 -15 -11 -18 0 -4 -13 -25 -28 -48 -31 -46 -196
-318 -231 -382 -12 -22 -32 -58 -45 -80 -123 -217 -317 -609 -434 -880 -142
-328 -324 -832 -397 -1100 -9 -33 -32 -116 -51 -185 -38 -136 -83 -310 -90
-350 -3 -14 -11 -50 -19 -80 -7 -30 -16 -68 -18 -85 -3 -16 -10 -50 -16 -75
-5 -25 -13 -61 -16 -80 -3 -19 -8 -42 -10 -50 -2 -8 -7 -29 -10 -46 -22 -135
-45 -276 -50 -309 -4 -22 -8 -51 -11 -65 -3 -22 -28 -208 -39 -300 -2 -19 -7
-64 -10 -100 -4 -36 -8 -76 -10 -90 -3 -24 -14 -152 -20 -250 -33 -512 -25
-1131 20 -1595 2 -22 7 -74 10 -115 4 -41 8 -82 10 -90 2 -8 7 -37 10 -65 5
-44 32 -245 40 -300 6 -36 25 -149 30 -175 2 -13 7 -42 11 -65 5 -36 70 -360
79 -395 2 -8 11 -44 19 -80 24 -111 53 -220 115 -445 80 -293 250 -784 354
-1025 5 -14 11 -27 12 -30 1 -3 6 -16 12 -30 6 -14 23 -54 38 -90 136 -324
370 -785 573 -1125 199 -334 512 -792 707 -1033 119 -147 204 -252 221 -272
17 -20 143 -165 189 -217 373 -423 915 -922 1390 -1277 72 -53 137 -103 145
-109 107 -85 752 -507 775 -507 2 0 29 -16 60 -35 30 -20 63 -38 73 -42 9 -3
28 -14 42 -23 78 -54 589 -311 825 -415 449 -198 1050 -409 1425 -500 8 -2 76
-20 151 -39 75 -19 147 -37 160 -40 22 -4 147 -31 194 -42 11 -3 90 -18 175
-34 134 -25 221 -40 382 -65 20 -3 119 -17 220 -30 l183 -24 1070 2 c589 2
1081 6 1095 9 14 4 48 9 75 12 54 5 109 13 165 22 19 3 51 8 70 10 32 4 103
16 170 28 14 2 48 8 75 12 28 4 55 8 60 10 15 3 126 25 155 30 14 2 36 7 50
10 14 3 39 8 55 11 91 14 591 140 745 188 412 126 838 281 1069 386 24 11 64
29 90 39 159 63 628 299 861 432 58 33 125 72 150 86 25 14 56 32 70 41 14 9
34 21 45 28 117 70 187 115 368 237 170 114 399 277 462 328 6 5 28 22 50 39
46 34 38 28 170 134 115 91 125 100 168 139 18 15 52 44 77 65 25 20 54 45 66
56 12 11 56 52 100 90 320 286 691 672 973 1015 57 69 113 136 125 150 129
153 477 644 634 895 29 47 242 410 263 447 5 10 30 55 55 100 43 79 268 531
312 628 41 92 135 318 178 430 25 63 51 131 59 150 25 63 122 343 150 435 15
50 31 101 35 115 17 49 69 226 85 290 9 36 19 72 21 80 6 25 34 134 39 150 53
201 155 726 181 930 4 30 8 64 9 75 10 68 35 280 40 335 3 36 8 81 10 100 2
19 7 78 11 130 4 52 8 113 10 135 22 305 22 1022 -1 1255 -2 19 -6 73 -10 120
-11 150 -25 304 -31 333 -2 12 -6 49 -9 82 -5 51 -18 150 -41 295 -42 276
-102 584 -155 798 -17 69 -32 131 -34 137 -10 53 -110 401 -151 530 -47 147
-147 439 -169 490 -7 17 -36 91 -65 165 -133 340 -360 820 -541 1140 -152 269
-333 559 -500 800 -18 25 -46 65 -63 90 -43 62 -273 368 -305 406 -14 17 -42
51 -61 75 -67 84 -198 241 -245 294 -267 301 -550 586 -840 847 -201 182 -591
496 -740 598 -27 18 -52 36 -55 40 -8 10 -258 182 -380 261 -207 135 -406 254
-615 369 -33 18 -76 42 -95 53 -68 38 -426 215 -535 265 -149 68 -393 172
-403 172 -5 0 -16 6 -27 13 -17 13 -16 19 22 123 22 60 66 181 97 269 105 296
122 338 137 341 24 3 84 15 94 17 65 18 91 30 170 76 159 94 258 230 330 456
7 22 36 105 65 185 130 363 133 374 134 500 1 63 -2 133 -6 156 -16 93 -80
220 -158 315 -39 47 -155 136 -213 163 -46 21 -147 56 -147 51 0 -2 -15 1 -32
6 -45 13 -181 12 -248 -1 -235 -48 -434 -215 -512 -430 -66 -179 -200 -557
-225 -630 -25 -74 -26 -270 -2 -359 27 -102 81 -204 148 -280 12 -13 21 -29
21 -36 0 -10 -183 -529 -236 -671 l-16 -41 -141 44 c-205 65 -447 134 -513
147 -10 3 -66 16 -124 30 -121 29 -284 65 -320 71 -14 2 -59 10 -100 19 -108
21 -237 44 -295 52 -27 3 -52 7 -55 9 -3 2 -30 6 -60 10 -30 3 -67 8 -81 11
-15 2 -47 6 -70 9 -59 7 -105 13 -158 20 -24 4 -64 8 -90 10 -60 5 -152 13
-221 21 -60 6 -117 9 -310 20 -117 6 -178 10 -190 13 -4 1 -5 460 -1 482 1 3
36 11 79 19 42 7 85 15 94 17 59 10 280 93 376 139 215 104 374 216 542 383
128 127 160 165 249 296 147 217 238 427 300 695 19 84 24 114 39 257 9 79 8
290 -1 368 -4 28 -9 73 -12 100 -4 28 -18 97 -31 155 -14 58 -27 112 -29 120
-9 41 -88 238 -128 316 -312 623 -910 1034 -1597 1100 -65 6 -298 13 -303 8z"/>
</g>
</svg>
