<?xml version="1.0" standalone="no"?>
<!DOCTYPE svg PUBLIC "-//W3C//DTD SVG 20010904//EN"
 "http://www.w3.org/TR/2001/REC-SVG-20010904/DTD/svg10.dtd">
<svg version="1.0" xmlns="http://www.w3.org/2000/svg"
 width="512.000000pt" height="512.000000pt" viewBox="0 0 512.000000 512.000000"
 preserveAspectRatio="xMidYMid meet">
<metadata>
Created by potrace 1.14, written by Peter Selinger 2001-2017
</metadata>
<g transform="translate(0.000000,512.000000) scale(0.100000,-0.100000)"
fill="#000000" stroke="none">
<path d="M2439 5105 c-2 -2 -35 -6 -74 -10 -117 -10 -313 -54 -440 -96 -711
-241 -1239 -837 -1389 -1569 -34 -165 -40 -232 -40 -435 0 -202 5 -260 40
-435 79 -389 282 -766 570 -1056 125 -126 226 -206 407 -323 65 -42 232 -122
344 -165 51 -19 106 -42 123 -51 44 -23 109 -83 137 -129 55 -87 56 -94 59
-476 2 -292 4 -354 16 -352 26 6 255 120 372 185 66 37 123 67 127 67 4 0 9 4
11 8 2 4 30 23 63 41 60 34 406 259 415 270 3 4 30 24 60 46 56 40 225 172
270 211 388 337 638 622 835 949 54 89 175 328 175 345 0 5 4 18 9 28 41 81
108 303 130 432 6 36 13 76 16 90 34 170 24 506 -20 745 -13 68 -59 226 -92
315 -65 175 -191 406 -288 529 -224 282 -451 470 -745 618 -174 87 -374 156
-516 179 -21 3 -42 8 -45 9 -3 2 -27 7 -54 11 -27 3 -61 8 -75 10 -32 6 -397
14 -401 9z"/>
</g>
</svg>
